<?xml version="1.0" encoding="UTF-8" standalone="no"?>
<!-- Created with Inkscape (http://www.inkscape.org/) -->

<svg
   width="64"
   height="64"
   viewBox="0 0 16.933333 16.933333"
   version="1.1"
   id="svg5"
   xml:space="preserve"
   inkscape:version="1.2.2 (b0a8486541, 2022-12-01)"
   sodipodi:docname="showwcase-new.svg"
   xmlns:inkscape="http://www.inkscape.org/namespaces/inkscape"
   xmlns:sodipodi="http://sodipodi.sourceforge.net/DTD/sodipodi-0.dtd"
   xmlns="http://www.w3.org/2000/svg"
   xmlns:svg="http://www.w3.org/2000/svg"><sodipodi:namedview
     id="namedview7"
     pagecolor="#505050"
     bordercolor="#eeeeee"
     borderopacity="1"
     inkscape:showpageshadow="0"
     inkscape:pageopacity="0"
     inkscape:pagecheckerboard="0"
     inkscape:deskcolor="#505050"
     inkscape:document-units="mm"
     showgrid="false"
     inkscape:zoom="7.972371"
     inkscape:cx="23.957741"
     inkscape:cy="35.748462"
     inkscape:window-width="1920"
     inkscape:window-height="1000"
     inkscape:window-x="0"
     inkscape:window-y="0"
     inkscape:window-maximized="1"
     inkscape:current-layer="layer1" /><defs
     id="defs2"><inkscape:path-effect
       effect="fillet_chamfer"
       id="path-effect443"
       is_visible="true"
       lpeversion="1"
       nodesatellites_param="F,0,0,1,0,1.5875,0,1 @ F,0,0,1,0,1.5875,0,1 @ F,0,0,1,0,1.5875,0,1 @ F,0,0,1,0,1.5875,0,1"
       unit="px"
       method="auto"
       mode="F"
       radius="6"
       chamfer_steps="1"
       flexible="false"
       use_knot_distance="true"
       apply_no_radius="true"
       apply_with_radius="true"
       only_selected="false"
       hide_knots="false" /></defs><g
     inkscape:label="Layer 1"
     inkscape:groupmode="layer"
     id="layer1"><rect
       style="fill:#171717;stroke-width:4.08314;stroke-linecap:round;paint-order:stroke fill markers;fill-opacity:1"
       id="rect184"
       width="16.933332"
       height="16.933332"
       x="0"
       y="0"
       inkscape:path-effect="#path-effect443"
       d="m 1.5875,0 h 13.758332 a 1.5875,1.5875 45 0 1 1.5875,1.5875 v 13.758332 a 1.5875,1.5875 135 0 1 -1.5875,1.5875 H 1.5875 A 1.5875,1.5875 45 0 1 0,15.345832 V 1.5875 A 1.5875,1.5875 135 0 1 1.5875,0 Z" /><g
       style="fill:#ffffff"
       id="g522"
       transform="matrix(0.08466547,0,0,0.09407501,4.2333439,4.2333208)"><path
         fill-rule="evenodd"
         clip-rule="evenodd"
         d="m 35.64,7.241 a 67.234,67.234 0 0 1 7.064,-0.916 c 0.536,-0.041 0.909,-0.13 1.14,-0.507 0.39,-0.634 1.084,-0.878 2.05,-0.95 2.6,-0.194 5.179,-0.208 7.785,-0.029 1.257,0.087 2.095,0.406 2.577,1.233 0.19,0.325 0.517,0.445 1.007,0.48 1.023,0.072 2.04,0.182 3.054,0.317 1.317,0.176 2.621,0.399 3.988,0.623 C 64.069,6.697 63.702,6.024 63.289,5.363 61.711,2.84 59.18,1.121 55.415,0.424 52.586,-0.099 49.723,-0.053 46.855,0.113 45.06,0.217 43.347,0.573 41.748,1.189 38.416,2.469 36.777,4.655 35.639,7.241 Z M 1.981,9.547 a 12.25,12.25 0 0 1 3.153,1.76 c 2.095,1.603 3.537,3.515 4.873,5.472 1.485,2.174 2.654,4.445 3.756,6.746 0.219,-0.133 0.235,-0.292 0.282,-0.446 0.562,-1.82 1.222,-3.621 2.067,-5.385 1.499,-3.125 3.505,-6.015 7.157,-8.138 C 23.636,9.343 23.606,9.194 23.335,8.943 22.178,7.871 20.929,6.863 19.472,6.003 18.32,5.324 16.996,4.98 15.491,5.005 12.187,5.059 9.181,5.838 6.331,6.982 4.689,7.641 3.161,8.412 1.981,9.547 Z M 45.45,7.29 45.108,7.34 C 45.057,7.329 45.004,7.304 44.955,7.306 c -4.328,0.237 -8.622,0.618 -12.79,1.552 -4.464,1 -7.909,2.943 -10.303,5.858 -1.906,2.322 -2.948,4.888 -3.898,7.47 -0.993,2.698 -1.683,5.448 -2.296,8.204 -0.99,4.449 -1.742,8.922 -2.45,13.397 a 447.73,447.73 0 0 0 -1.416,9.807 c -0.629,4.646 -1.188,9.295 -1.23,13.97 -0.039,4.101 0.087,8.19 1.83,12.149 1.143,2.596 3.11,4.73 6.42,6.152 3.43,1.474 7.184,2.27 11.028,2.869 5.693,0.887 11.478,1.179 17.284,1.246 6.24,0.072 12.475,-0.037 18.666,-0.692 4.539,-0.48 8.99,-1.21 13.202,-2.585 3.829,-1.25 6.623,-3.198 8.143,-6.093 1.51,-2.873 2.026,-5.87 2.202,-8.902 0.397,-6.85 -0.515,-13.656 -1.473,-20.456 -0.703,-4.991 -1.466,-9.978 -2.389,-14.952 -0.565,-3.042 -1.164,-6.078 -1.951,-9.093 -0.915,-3.5 -2,-6.965 -3.879,-10.273 C 77.366,12.902 73.516,10.055 67.67,8.834 60.406,7.318 52.97,6.951 45.45,7.29 Z m 45.755,42.175 c 0.003,0.397 0.02,0.794 0.16,1.181 l 0.461,3.191 c -0.066,0.202 -0.033,0.392 0.1,0.65 0.108,-0.268 0.344,-0.42 0.27,-0.644 l 1.4,-4.995 c 0.097,-0.184 0.189,-0.368 0.138,-0.57 0.271,-0.456 0.333,-0.95 0.5,-1.425 1.016,-2.877 1.708,-5.8 2.36,-8.728 0.718,-3.222 1.337,-6.457 2.134,-9.669 0.98,-3.95 1.42,-7.92 1.23,-11.925 -0.071,-1.482 -0.168,-2.973 -0.716,-4.513 -0.457,0.259 -0.857,0.453 -1.206,0.688 -1.61,1.087 -2.752,2.428 -3.775,3.816 -2.914,3.953 -4.805,8.195 -6.571,12.47 -0.09,0.217 -0.038,0.424 0.013,0.639 0.914,3.878 1.578,7.78 2.206,11.686 0.437,2.716 0.864,5.432 1.296,8.148 z M 0.279,13.058 C -0.013,13.906 0.002,14.773 0,15.637 c -0.01,3.925 0.578,7.814 1.284,11.7 0.613,3.377 1.465,6.721 2.295,10.069 a 465.6,465.6 0 0 0 2.498,9.73 c 0.834,3.079 1.135,6.197 1.452,9.316 0.023,0.228 -0.03,0.473 0.188,0.7 0.042,-0.064 0.096,-0.11 0.102,-0.16 A 374.246,374.246 0 0 1 9.775,43.315 c 0.718,-4.433 1.403,-8.868 2.415,-13.272 0.133,-0.575 0.297,-1.137 -0.002,-1.74 -0.584,-1.182 -1.025,-2.4 -1.587,-3.588 C 9.114,21.573 7.531,18.456 5.157,15.595 4.196,14.435 3.201,13.281 1.662,12.455 1.312,12.237 0.932,11.85 0.515,11.986 0.168,12.1 0.294,12.575 0.227,12.892 c -0.01,0.052 0.033,0.11 0.052,0.166 z m 92.7,-6.237 A 29.925,29.925 0 0 0 82.861,5.151 5.212,5.212 0 0 0 80.054,5.976 c -1.426,0.913 -2.417,2.057 -3.266,3.277 -0.174,0.25 0.013,0.351 0.233,0.483 a 15.27,15.27 0 0 1 2.692,2.039 c 2.817,2.682 4.257,5.803 5.445,9.003 0.362,0.976 0.685,1.959 1.068,3.06 1.164,-2.394 2.288,-4.667 3.762,-6.834 1.792,-2.635 3.72,-5.205 7.08,-7.008 l 0.436,-0.202 0.378,-0.152 c 0.35,-0.092 0.138,-0.185 0,-0.278 -0.069,-0.2 -0.25,-0.34 -0.466,-0.463 C 97.238,8.654 96.953,8.488 96.626,8.353 95.896,7.856 95.046,7.493 94.144,7.189 93.771,7.041 93.43,6.839 92.979,6.821 Z"
         fill="var(--color-gray-400)"
         id="path513" /></g></g></svg>
